<?xml version="1.0" encoding="utf-8"?>
<!-- Generator: Adobe Illustrator 16.0.3, SVG Export Plug-In . SVG Version: 6.00 Build 0)  -->
<!DOCTYPE svg PUBLIC "-//W3C//DTD SVG 1.1//EN" "http://www.w3.org/Graphics/SVG/1.1/DTD/svg11.dtd">
<svg version="1.1" id="Capa_1" xmlns="http://www.w3.org/2000/svg" xmlns:xlink="http://www.w3.org/1999/xlink" x="0px" y="0px"
	 width="566.93px" height="566.93px" viewBox="0 0 566.93 566.93" enable-background="new 0 0 566.93 566.93" xml:space="preserve">
<g>
	<g>
		<path fill-rule="evenodd" clip-rule="evenodd" fill="#FEFEFE" d="M552.37,526.761c-178.871,0-357.741,0-536.612,0
			c0-161.69,0-323.382,0-485.073c178.871,0,357.741,0,536.612,0C552.37,203.379,552.37,365.071,552.37,526.761z M142.713,414.013
			c0.216-0.302,0.433-0.602,0.65-0.903c1.113,0.709,2.391,1.25,3.315,2.152c15.301,14.947,32.909,26.449,52.323,35.3
			c21.354,9.735,43.864,14.777,67.194,15.932c19.117,0.946,37.943-1.376,56.468-6.408c27.066-7.354,51.243-20.164,72.283-38.57
			c31.856-27.869,52.127-62.683,60.375-104.265c3.469-17.489,4.632-35.2,2.741-52.99c-2.165-20.359-6.47-40.24-15.839-58.598
			c-5.702-11.174-11.841-22.19-18.65-32.716c-8.851-13.677-20.649-24.883-33.158-35.174c-18.656-15.35-39.639-26.518-62.845-33.473
			c-26.633-7.982-53.67-9.708-81.139-5.749c-18.61,2.682-36.228,8.462-53.193,16.486c-3.306,1.563-7.02,2.833-10.622,3.068
			c-5.741,0.375-11.544-0.302-17.323-0.407c-5.233-0.095-10.469-0.021-15.092-0.021c0,8.371,0.119,16.051-0.093,23.722
			c-0.046,1.666-0.904,3.633-2.028,4.889c-4.705,5.257-9.622,10.328-14.535,15.396c-1.175,1.212-2.635,2.15-3.963,3.214
			c-1.608-5.552-3.217-11.104-4.935-17.031c-2.242,8.336-2.251,16.434-1.768,24.58c0.086,1.453-0.197,2.927-0.309,4.391
			c-0.683,0.706-1.58,1.3-2.018,2.135c-6.105,11.62-12.119,23.288-18.248,34.895c-0.621,1.176-1.844,2.035-2.79,3.04
			c-4.787-5.542-11.185-8.759-17.118-12.647c-0.338,0.267-0.676,0.535-1.015,0.802c2.925,7.015,5.85,14.029,8.775,21.043
			c0.317-0.104,0.634-0.208,0.951-0.313c0.53-1.321,1.06-2.642,1.958-4.881c1.863,2.63,3.269,4.616,4.674,6.601
			c-0.913,3.244-1.918,6.467-2.718,9.739c-1.364,5.581-2.6,11.193-3.889,16.793c-0.345-0.148-0.795-0.203-1.019-0.457
			c-8.984-10.227-17.945-20.474-26.915-30.713c-3.681-4.203-7.376-8.394-11.411-12.982c2.004-0.413,3.257-0.671,5.174-1.066
			c-6.786-4.935-13.025-9.473-19.265-14.012c-0.381,0.301-0.763,0.602-1.144,0.903c2.926,6.994,5.851,13.987,9.11,21.776
			c1.112-2.084,1.609-3.017,2.273-4.261c13.798,15.463,27.396,30.644,40.918,45.893c3.715,4.19,1.88,8.7-3.735,9.869
			c-12.251,2.547-21.533-2.649-30.071-11.287c1.459-0.465,2.51-0.8,4.352-1.388c-6.364-5.414-12.239-10.41-18.113-15.407
			c-0.377,0.232-0.755,0.465-1.133,0.697c2.188,7.281,4.375,14.563,6.563,21.844c0.362-0.048,0.724-0.096,1.085-0.144
			c0.668-1.08,1.336-2.159,1.628-2.631c5.751,3.85,10.997,8.098,16.877,11.104c6.66,3.406,13.929,4.266,21.089,0.746l0.048-0.037
			c0.673-0.045,1.345-0.09,2.018-0.134c0.481,10.04,0.617,20.111,1.525,30.113c1.263,13.904,4.162,27.507,9.477,40.503
			c3.724,10.676,6.952,21.559,11.29,31.979c6.122,14.709,15.036,27.817,25.503,39.822c1.152,1.32,3.004,2.03,4.942,3.29
			c0.21-2.023,0.312-3.009,0.415-3.996l0.144,0.059L142.713,414.013z"/>
		<path fill-rule="evenodd" clip-rule="evenodd" fill="#ED2F3D" d="M129.582,164.897c1.329-1.064,2.788-2.002,3.963-3.214
			c4.913-5.068,9.831-10.138,14.535-15.396c1.124-1.256,1.982-3.223,2.028-4.889c0.212-7.671,0.093-15.352,0.093-23.722
			c4.623,0,9.859-0.075,15.092,0.021c5.779,0.105,11.583,0.782,17.323,0.407c3.602-0.234,7.316-1.505,10.622-3.068
			c16.965-8.023,34.583-13.804,53.193-16.486c27.469-3.958,54.506-2.233,81.139,5.749c23.206,6.955,44.188,18.124,62.845,33.473
			c12.509,10.291,24.308,21.497,33.158,35.174c6.81,10.526,12.948,21.542,18.65,32.716c9.369,18.358,13.674,38.238,15.839,58.598
			c1.891,17.79,0.728,35.501-2.741,52.99c-8.248,41.582-28.519,76.396-60.375,104.265c-21.04,18.406-45.217,31.217-72.283,38.57
			c-18.525,5.032-37.352,7.354-56.468,6.408c-23.33-1.154-45.84-6.196-67.194-15.932c-19.415-8.851-37.022-20.353-52.323-35.3
			c-0.924-0.902-2.202-1.443-3.315-2.15c-0.233-3.385-0.715-6.775-0.652-10.156c0.171-9.09,2.634-17.956,12.704-20.905
			c3.745-1.098,8.01-1.047,11.96-0.682c7.673,0.71,14.133,4.213,17.867,11.114c3.033,5.605,5.227,11.669,7.725,17.558
			c1.267,2.986,2.306,7.308,5.846,6.851c3.541-0.457,3.504-4.968,4.157-8.157c2.852-13.914,5.813-27.807,8.559-41.741
			c0.531-2.692,2.171-3.59,4.369-3.699c9.756-0.487,17.137-5.254,23.236-12.494c6.818-8.095,10.595-17.321,8.647-27.91
			c-1.52-8.257-4.347-16.265-6.211-24.47c-1.521-6.697-3.547-13.537-3.448-20.286c0.172-11.799,8.493-16.185,18.095-13.329
			c-0.447,0.659-0.89,1.312-1.036,1.529c9.072,2.491,18.043,4.955,26.708,7.333c-3.145-3.106-6.736-6.655-10.328-10.203
			c0.803-0.935,1.605-1.871,2.409-2.806c-1.05-0.428-2.069-0.989-3.16-1.245c-0.943-0.221-1.969-0.093-2.959-0.121
			c-1.046-1.354-2.094-2.71-3.991-5.165c-0.377,6.232-3.012,3.734-5.054,3.269c-0.145-7.686-0.144-15.378-0.508-23.054
			c-0.145-3.07,0.518-4.363,3.839-4.309c1.666,0.027,4.857-1.514,4.794-1.815c-0.646-3.129-3.238-1.676-5.152-1.673
			c-1.853,0.003-3.624,0.318-3.605-2.442c0.035-5.295,0.021-10.593-0.077-15.887c-0.044-2.388,1.083-3.045,3.274-2.905
			c2.134,0.136,4.309,0.195,6.418-0.08c1.048-0.137,1.989-1.099,2.978-1.687c-0.944-0.577-1.858-1.583-2.837-1.651
			c-3.264-0.229-6.563,0.044-9.827-0.187c-3.39-0.241-4.231,1.167-4.25,4.405c-0.099,16.891-0.431,33.782-0.682,50.672
			c-3.565,0.287-7.129,0.574-10.693,0.861c-0.153-3.134-0.397-6.266-0.444-9.401c-0.235-15.637-0.376-31.275-0.66-46.91
			c-0.052-2.872,0.307-4.498,3.887-4.152c2.135,0.207,4.544-0.496,6.568-1.386c8.014-3.528,9.148-13.484,1.689-17.987
			c-3.291-1.987-7.83-1.932-11.816-2.73c-3.497-0.701-4.505,0.837-4.53,4.313c-0.189,26.356-0.575,52.711-0.854,79.068
			c-0.014,1.378,0.392,2.761,0.603,4.141c-4.861,6.467-7.056,13.929-5.453,21.686c2.186,10.569,5.151,21.017,8.415,31.315
			c4.03,12.713,0.338,26.901-10.075,35.217c-4.352,3.476-9.113,6.22-15.461,5.755c0.111-1.91,0.15-3.632,0.321-5.34
			c1.399-14.03,3.613-28.034,4.025-42.093c0.439-14.969-0.497-30.007-1.451-44.977c-0.615-9.655-2.357-19.237-3.561-28.856
			c-0.333-2.667-1.298-3.664-4.258-2.809c-19.983,5.772-40.443,6.792-61.019,5.085c-4.109-0.341-4.736,1.291-5.348,4.172
			c-2.955,13.916-5.817,27.852-8.884,41.743c-3.326,15.061-5.533,30.22-5.008,45.697c0.159,4.669,0.177,9.344,0.206,14.017
			c0.005,0.885-0.241,1.771-0.372,2.655c-0.333,0.018-0.667,0.035-1,0.053c-0.246-1.123-0.601-2.235-0.722-3.372
			c-1.805-16.936-0.779-33.751,2.642-50.393c3.575-17.391,7.425-34.726,11.256-52.063c0.476-2.152,0.151-3.355-2.07-3.967
			c-2.672-0.736-5.431-1.367-7.91-2.55c-3.19-1.521-4.569-0.897-5.545,2.591c-2.389,8.536-4.943,17.041-7.874,25.402
			c-1.702,4.856-4.26,9.412-6.735,14.752c-3.13-3.447-5.655-6.406-8.381-9.166c-1.965-1.99-1.608-3.377,0.188-5.343
			c7.218-7.899,9.07-17.131,5.099-27.001c-1.842-4.579-5.225-8.519-7.614-12.909c-0.762-1.399-0.572-3.315-0.818-4.995
			c0.944-1.006,2.167-1.865,2.788-3.041c6.129-11.607,12.143-23.275,18.248-34.895c0.438-0.835,1.334-1.429,2.02-2.137
			c0.425,0.606,1.051,1.158,1.243,1.832c2.364,8.313,5.866,16.065,10.994,23.064c0.426,0.582,0.365,1.52,0.651,2.852
			c-1.317-0.719-2.025-1.36-2.814-1.483c-1.663-0.259-3.86-0.924-4.916-0.155c-1.05,0.764-1.414,3.123-1.264,4.705
			c0.158,1.656,0.949,3.52,2.059,4.76c2.444,2.731,2.507,5.536,1.283,8.696c-0.454,1.172-0.737,2.412-1.068,3.628
			c-1.326,4.863-1.379,5.422,3.667,6.613c7.922,1.869,15.96,3.753,24.041,4.314c8.634,0.599,17.428,0.178,26.053-0.736
			c8.729-0.924,17.344-2.955,25.991-4.59c2.996-0.566,4.35-2.263,3.185-5.445c-1.843-5.03-2.343-9.942,1.649-14.334
			c0.321-0.353,0.629-0.933,0.584-1.371c-0.242-2.36,0.18-5.349-1.102-6.907c-1.747-2.123-4.378-0.609-6.367,0.962
			c-0.133,0.105-0.448-0.02-1.785-0.126c12.827-16.456,16.334-34.435,10.826-54.016c-0.779,0.803-1.03,1.71-1.198,2.631
			c-2.058,11.241-5.398,21.756-15.212,28.981c-4.226,3.111-4.553,3.396-8.148-0.165c-1.822-1.805-3.406-2.298-5.974-1.583
			c-9.747,2.712-19.703,2.986-29.539,0.785c-3.221-0.721-5.673-0.205-7.388,2.005c-1.688,2.178-2.929,1.783-4.685,0.545
			C137.031,177.854,131.917,172.477,129.582,164.897z M160.151,166.095c-0.369,0.076-0.738,0.152-1.107,0.229
			c-0.239-0.983-0.643-1.958-0.689-2.95c-0.283-6.044-0.495-12.091-0.711-18.138c-0.262-7.311-0.472-14.623-0.773-21.931
			c-0.108-2.641-2.138-4.081-3.776-2.65c-0.744,0.647-0.988,2.22-0.951,3.357c0.458,14.092,1.003,28.183,1.542,42.273
			c0.097,2.516,0.276,5.03,0.399,7.546c0.113,2.329,1.085,3.513,3.623,3.903c8.436,1.298,16.774,1.149,25.11-0.697
			c2.052-0.454,2.885-1.319,2.913-3.544c0.142-11.1,0.451-22.199,0.728-33.297c0.145-5.799,0.309-11.598,0.533-17.393
			c0.104-2.656-1.408-3.621-3.521-2.802c-0.908,0.352-1.662,2.328-1.674,3.575c-0.124,12.754-0.067,25.51-0.102,38.265
			c-0.004,1.478-0.255,2.955-0.392,4.433c-0.44-0.006-0.881-0.013-1.321-0.019c-0.16-1.635-0.455-3.27-0.458-4.905
			c-0.028-12.628,0-25.257,0.012-37.885c0.002-1.938,0.193-3.827-2.793-3.755c-2.808,0.068-2.501,1.898-2.501,3.646
			c0.002,12.881,0.032,25.762,0.021,38.643c-0.001,1.26-0.212,2.52-0.326,3.78c-0.418,0.024-0.837,0.047-1.255,0.07
			c-0.193-1.309-0.549-2.617-0.555-3.926c-0.057-12.755-0.103-25.511-0.032-38.266c0.015-2.609-0.898-4.104-3.453-3.174
			c-0.845,0.308-1.467,2.393-1.471,3.668c-0.04,12.752,0.086,25.504,0.119,38.257c0.003,1.361-0.281,2.723-0.431,4.084
			c-0.409,0.002-0.818,0.005-1.227,0.007c-0.118-1.271-0.313-2.542-0.342-3.815c-0.293-13.121-0.51-26.243-0.932-39.36
			c-0.033-1.038-1.436-2.031-2.202-3.045c-0.842,0.944-2.404,1.881-2.411,2.831c-0.049,6.427,0.312,12.855,0.383,19.285
			C160.218,150.293,160.151,158.194,160.151,166.095z M291.88,271.917c-3.205-0.914-3.978,1.623-5.09,3.429
			c-3.752,6.091-9.372,8.917-15.667,6.458c-3.211-1.254-5.626-4.583-8.354-7.026c-1.224-1.097-2.333-2.323-3.495-3.49
			c-0.417,0.151-0.833,0.301-1.251,0.452c-1.618,23.711-3.236,47.423-4.872,71.402c1.976,0.98,3.624-0.219,4.226-2.346
			c1.021-3.61,2.043-7.328,2.244-11.044c0.769-14.242,1.195-28.503,1.791-42.756c0.101-2.418,0.402-4.828,0.741-8.766
			c8.865,11.164,17.302,10.406,26.134,0.383c0.18,2.547,0.32,3.99,0.376,5.437c0.582,15.14,0.959,30.291,1.842,45.414
			c0.254,4.355,1.821,8.668,3.1,12.905c0.278,0.922,1.896,1.44,2.896,2.145c0.261-1.409,0.892-2.867,0.709-4.216
			c-0.452-3.343-1.677-6.611-1.881-9.953c-0.958-15.711-1.651-31.438-2.498-47.155C292.629,279.437,292.204,275.694,291.88,271.917z
			 M314.153,297.638c0.503-0.118,1.007-0.237,1.51-0.355c2.831,7.739,5.349,15.613,8.588,23.178
			c2.869,6.699,6.488,13.084,9.934,19.523c0.382,0.715,1.848,1.299,2.692,1.168c0.628-0.097,1.274-1.386,1.525-2.255
			c0.271-0.937,0.106-2.003,0.103-3.012c-0.056-14.746-0.105-29.49-0.215-44.235c-0.005-0.599-0.582-1.193-0.892-1.791
			c-0.594,0.368-1.54,0.615-1.715,1.126c-0.604,1.772-1.308,3.636-1.314,5.466c-0.024,6.811,0.241,13.62,0.342,20.432
			c0.06,3.975,0.012,7.951,0.012,11.927c-0.35,0.216-0.699,0.431-1.048,0.646c-0.946-0.991-2.284-1.82-2.771-3.002
			c-1.924-4.656-3.363-9.518-5.385-14.128c-2.972-6.776-6.17-13.464-9.556-20.043c-0.685-1.328-2.635-2.004-4.002-2.98
			c-0.56,1.544-1.576,3.08-1.606,4.635c-0.289,14.763-0.455,29.529-0.487,44.296c-0.002,1.065,1.149,2.815,2.078,3.063
			c2.08,0.553,2.321-1.182,2.305-2.854c-0.058-5.806-0.084-11.611-0.095-17.418C314.143,313.228,314.153,305.433,314.153,297.638z
			 M418.872,260.926c-0.145-1.418-0.179-1.795-0.222-2.171c-1.491-12.731-2.967-25.463-4.482-38.192
			c-0.641-5.383-1.314-10.763-2.106-16.126c-0.127-0.855-0.827-2.102-1.491-2.272c-0.694-0.179-1.954,0.515-2.453,1.201
			c-0.869,1.195-1.568,2.619-1.942,4.051c-1.051,4.023-1.935,8.091-2.821,12.156c-2.967,13.611-2.744,27.914-8.829,40.873
			c-0.196,0.42,0.963,1.479,1.491,2.239c1.12-1.039,2.967-1.914,3.246-3.144c2.031-8.963,3.811-17.986,5.52-27.019
			c0.409-2.158,1.297-2.977,3.496-2.898c2.354,0.084,2.558,1.481,2.629,3.276c0.082,2.013,0.321,4.019,0.483,6.028
			c0.561,6.917,1.135,13.833,1.664,20.752c0.159,2.082,1.049,3.582,3.256,3.14C417.414,262.599,418.315,261.362,418.872,260.926z
			 M354.436,201.846c-0.481-0.102-0.964-0.204-1.445-0.306c-1.38,1.979-3.518,3.787-4.005,5.965
			c-1.875,8.391-3.057,16.934-4.81,25.355c-1.885,9.051-1.469,18.62-6.021,27.1c-0.337,0.629,0.198,1.727,0.327,2.607
			c0.907-0.231,2.281-0.174,2.637-0.747c1.108-1.788,2.194-3.735,2.635-5.764c1.527-7.026,2.7-14.129,4.176-21.168
			c0.507-2.421,1.504-4.739,2.429-7.571c-2.084-2.773-1.235-10.134,2.763-14.859c-1.215,5.632,2.663,10.912-0.995,14.912
			c0.897,2.701,1.941,4.811,2.261,7.025c0.555,3.861,0.647,7.787,0.964,11.683c0.368,4.527,0.728,9.055,1.174,13.574
			c0.187,1.893,0.936,3.835,3.217,3.083c1.015-0.335,1.602-2.206,2.195-3.468c0.233-0.498-0.023-1.24-0.097-1.866
			c-2.028-17.292-4.043-34.584-6.13-51.869C355.557,204.271,354.872,203.074,354.436,201.846z M311.662,234.32
			c-0.065-8.002,2.056-15.475,5.831-22.451c0.987-1.824,2.605-3.412,4.225-4.76c2.267-1.887,4.915-2.647,7.673-0.85
			c2.579,1.681,2.075,3.909,1.235,6.37c-0.267,0.781,0.516,1.92,0.817,2.896c0.936-0.477,2.195-0.713,2.753-1.469
			c2.688-3.642,0.757-9.652-3.534-11.43c-5.723-2.372-12.35,0.121-16.829,6.777c-6.06,9.003-8.674,19.077-7.408,29.84
			c0.903,7.694,2.995,15.126,9.313,20.51c6.089,5.188,16.5,3.835,19.839-2.597c1.063-2.047,1.773-4.458-0.553-5.652
			c-2.501-1.284-2.483,1.666-3.2,3.009c-1.559,2.918-3.827,4.813-7.166,4.715c-3.122-0.092-5.645-1.34-7.396-4.321
			C313.507,248.513,312.046,241.59,311.662,234.32z M272.652,237.899c0.885,3.147,2.058,8.969,4.171,14.425
			c2.843,7.343,9.226,11.117,16.249,10.528c4.805-0.403,10.073-4.722,9.869-8.342c-0.059-1.026-1.108-1.996-1.703-2.991
			c-0.693,0.541-1.693,0.937-2.027,1.647c-1.597,3.402-3.678,6.075-7.833,6.108c-4.27,0.034-6.66-2.713-8.378-6.094
			c-5.151-10.136-6.14-20.81-2.731-31.578c1.487-4.698,4.059-9.162,6.756-13.33c1.798-2.778,5.112-3.932,8.399-2.405
			c3.21,1.491,3.035,4.177,1.797,7.098c-0.252,0.594,0.555,1.636,0.874,2.471c0.851-0.362,1.977-0.493,2.505-1.125
			c2.845-3.395,1.403-9.234-2.681-11.328c-5.3-2.718-11.775-0.853-16.314,4.969C275.39,215.923,273.037,225.209,272.652,237.899z
			 M383.834,234.939c-0.166,0-0.332,0-0.498,0c0-8.581,0.063-17.162-0.04-25.742c-0.028-2.415,0.709-3.485,3.239-3.361
			c3.148,0.155,6.331,0.285,9.455-0.023c1.313-0.13,2.514-1.407,3.765-2.164c-1.208-0.623-2.409-1.77-3.626-1.788
			c-10.097-0.15-20.198-0.157-30.294-0.006c-1.135,0.017-2.251,1.281-3.375,1.967c1.18,0.71,2.313,1.917,3.548,2.032
			c3.001,0.28,6.075,0.288,9.072-0.033c3.229-0.345,4.104,0.702,4.035,3.941c-0.342,16.152-0.472,32.308-0.564,48.464
			c-0.01,1.841-1.104,4.576,2.597,4.679c3.801,0.105,2.635-2.607,2.654-4.488C383.88,250.592,383.834,242.765,383.834,234.939z
			 M368.604,289.029c-1.088,1.098-2.313,1.788-2.622,2.768c-0.518,1.642-0.597,3.466-0.604,5.214
			c-0.044,10.722,0.017,21.444-0.023,32.166c-0.021,5.471-4.01,9.68-8.969,9.625c-5.299-0.059-8.143-3.343-8.249-9.535
			c-0.213-12.232-0.385-24.465-0.701-36.693c-0.029-1.113-0.983-2.202-1.51-3.301c-0.633,1.108-1.795,2.206-1.818,3.328
			c-0.261,12.104-0.371,24.213-0.462,36.321c-0.056,7.479,4.965,12.404,12.574,12.464c7.36,0.059,12.359-4.872,12.375-12.302
			C368.624,316.119,368.604,303.155,368.604,289.029z M431.229,349.976c-60.798,0-120.908,0-181.018,0
			C253.551,352.16,428.109,351.968,431.229,349.976z M415.01,314.04c0.633,8.081,1.148,15.987,1.979,23.859
			c0.122,1.157,1.741,2.156,2.668,3.229c0.619-1.238,1.807-2.503,1.753-3.712c-0.177-4.018-0.775-8.019-1.257-12.021
			c-1.34-11.129-2.68-22.259-4.099-33.379c-0.108-0.845-0.838-1.611-1.278-2.413c-0.904,0.524-2.237,0.835-2.626,1.616
			c-0.941,1.889-1.688,3.95-2.077,6.024c-1.765,9.403-3.274,18.855-5.087,28.25c-0.98,5.082-2.385,10.081-3.634,15.264
			c3.449,0.438,3.925-2.32,4.404-4.438c1.443-6.383,2.797-12.803,3.751-19.272C410.035,313.475,411.652,312.921,415.01,314.04z
			 M390.593,316.57c-0.141,0-0.281-0.001-0.422-0.001c0-6.932,0.111-13.865-0.055-20.792c-0.065-2.709,0.875-3.588,3.487-3.387
			c2.635,0.203,5.303,0.24,7.934,0.044c0.912-0.068,1.756-1.054,2.632-1.621c-0.821-0.564-1.635-1.609-2.463-1.62
			c-8.95-0.112-17.902-0.106-26.853,0.014c-0.836,0.012-1.658,1.023-2.487,1.572c0.865,0.573,1.695,1.565,2.604,1.643
			c2.501,0.212,5.049,0.203,7.553-0.02c3.03-0.27,4.336,0.603,4.121,3.927c-0.316,4.9-0.155,9.829-0.221,14.746
			c-0.121,9.076-0.293,18.151-0.338,27.228c-0.004,0.979,0.479,2.167,1.148,2.861c0.346,0.358,2.049,0.129,2.345-0.338
			c0.618-0.974,0.959-2.279,0.974-3.453C390.636,330.439,390.593,323.503,390.593,316.57z M276.29,387.998
			c2.157-0.205,5.982-0.54,8.505-3.913c4.972-6.642,3.004-14.219-4.628-18.799c-1.246-0.747-1.98-2.3-3.122-3.278
			c-1.416-1.214-3.011-2.219-4.529-3.313c-0.7,1.375-1.932,2.72-2.012,4.13c-0.392,6.909-0.469,13.836-0.674,20.755
			C269.707,387.721,270.106,388.103,276.29,387.998z M399.105,373.182c-1.136-3.391-1.693-6.999-3.441-9.887
			c-3.877-6.397-10.772-5.941-14.175,0.789c-3.153,6.237-2.854,12.768,0.058,18.938c1.316,2.79,3.805,5.062,7.449,4.989
			c3.448-0.069,5.717-1.992,6.923-4.971C397.171,379.95,397.994,376.687,399.105,373.182z M304.673,315.642
			c-0.088,0-0.175,0-0.263,0c0-7.448,0.082-14.898-0.077-22.344c-0.029-1.327-1.067-2.632-1.64-3.946
			c-0.617,1.246-1.752,2.484-1.772,3.741c-0.243,14.768-0.367,29.538-0.352,44.308c0.001,1.233,1.104,3.412,1.92,3.525
			c2.853,0.396,2.147-2.086,2.16-3.697C304.704,330.034,304.673,322.838,304.673,315.642z M369.62,387.823
			c-0.261-3.309-0.683-6.372-0.701-9.438c-0.031-4.919,0.569-9.922-3.875-13.596c-0.391-0.322-0.226-1.356-0.259-2.063
			c-0.133-2.895-2.054-3.849-4.52-4.028c-2.92-0.213-2.726,1.962-2.73,3.869c-0.017,7.437-0.027,14.873,0.009,22.31
			c0.005,1.016,0.29,2.029,0.445,3.044c0.526,0.013,1.052,0.024,1.578,0.037c2.274-6.702-0.229-13.967,1.249-20.849
			c3.5-0.659,4.779,1.586,5.1,4.162c0.511,4.103,0.521,8.269,0.72,12.409C366.736,385.787,367.148,387.6,369.62,387.823z
			 M319.894,364.326c0.387-0.1,0.773-0.199,1.159-0.3c-0.309-1.304-0.258-3.395-1.006-3.736c-1.305-0.597-3.529-0.729-4.613,0.027
			c-3.628,2.527-3.313,7.297,0.65,11.007c2.564,2.4,4.345,5.142,3.632,8.604c-0.405,1.964-1.642,4.171-3.204,5.291
			c-0.692,0.496-3.12-1.429-4.842-2.296c-1.426,2.291-0.176,4.592,3.49,5.076c5.437,0.718,10.332-5.315,8.331-10.873
			c-0.964-2.677-3.143-5.014-5.096-7.216c-2.819-3.178-3.31-5.921-0.793-9.165C318.423,362.026,319.158,363.176,319.894,364.326z
			 M348.153,360.666c0.014-0.393,0.026-0.786,0.04-1.18c-1.081-0.276-2.156-0.76-3.243-0.79c-3.523-0.098-7.057-0.142-10.574,0.034
			c-1.307,0.064-2.58,0.794-3.868,1.22c1.229,0.486,2.476,1.422,3.683,1.373c3.059-0.128,3.849,1.112,3.749,4.025
			c-0.22,6.416-0.168,12.847-0.047,19.268c0.02,1.091,0.934,2.164,1.436,3.245c0.479-1.113,1.352-2.219,1.372-3.34
			c0.114-6.17,0.142-12.347-0.053-18.514c-0.1-3.16,0.43-5.164,4.238-4.68C345.93,361.46,347.062,360.905,348.153,360.666z
			 M300.032,359.001c-0.475-0.057-0.95-0.113-1.426-0.17c-0.288,1.058-0.813,2.112-0.825,3.173
			c-0.094,7.681-0.138,15.364-0.035,23.043c0.013,0.954,0.981,1.895,1.507,2.843c0.431-1.025,1.222-2.046,1.235-3.076
			c0.097-7.429,0.057-14.859,0.003-22.288C300.483,361.35,300.193,360.176,300.032,359.001z M306.114,283.079
			c-1.778-1.04-2.851-2.169-3.777-2.059c-0.835,0.099-2.21,1.677-2.086,2.382c0.176,1.01,1.476,2.499,2.339,2.529
			C303.495,285.961,304.45,284.51,306.114,283.079z"/>
		<path fill-rule="evenodd" clip-rule="evenodd" fill="#2A1F22" d="M271.562,263.463c3.592,3.548,7.183,7.097,10.328,10.203
			c-8.665-2.379-17.636-4.842-26.708-7.333c0.146-0.217,0.589-0.87,1.036-1.529c-9.602-2.856-17.922,1.53-18.095,13.329
			c-0.099,6.749,1.927,13.589,3.448,20.286c1.864,8.205,4.691,16.213,6.211,24.47c1.947,10.589-1.829,19.815-8.647,27.91
			c-6.099,7.24-13.48,12.007-23.236,12.494c-2.198,0.109-3.838,1.007-4.369,3.699c-2.746,13.935-5.707,27.827-8.559,41.741
			c-0.653,3.189-0.616,7.7-4.157,8.157c-3.541,0.457-4.579-3.864-5.846-6.851c-2.498-5.889-4.692-11.952-7.725-17.558
			c-3.734-6.901-10.194-10.404-17.867-11.114c-3.951-0.365-8.215-0.416-11.96,0.682c-10.069,2.949-12.532,11.815-12.704,20.905
			c-0.063,3.381,0.418,6.771,0.652,10.156c-0.216,0.3-0.433,0.6-0.646,0.901c0.003-0.001-0.1,0.054-0.1,0.054
			c-0.103,0.987-0.205,1.973-0.415,3.996c-1.938-1.26-3.79-1.97-4.942-3.29c-10.468-12.005-19.381-25.113-25.503-39.822
			c-4.337-10.421-7.566-21.304-11.288-31.977c-0.228-4.119-0.471-8.243-0.685-12.368c-0.704-13.622,1.116-27.008,6.242-39.544
			c3.022-7.393,1.549-12.135-3.971-17.203c-5.881-5.397-5.581-5.724-12.59-1.504c-0.673,0.044-1.345,0.089-2.017,0.134
			c0.002,0-0.109-0.1-0.109-0.1l0.06,0.136c-7.16,3.52-14.429,2.661-21.089-0.746c-5.88-3.006-11.125-7.254-16.877-11.104
			c-0.292,0.472-0.96,1.551-1.628,2.631c-0.362,0.048-0.724,0.096-1.085,0.144c-2.188-7.282-4.376-14.563-6.563-21.844
			c0.377-0.232,0.755-0.465,1.133-0.697c5.875,4.997,11.749,9.994,18.113,15.407c-1.842,0.588-2.893,0.923-4.352,1.388
			c8.538,8.638,17.819,13.834,30.071,11.287c5.615-1.168,7.45-5.679,3.735-9.869c-13.522-15.249-27.12-30.43-40.918-45.893
			c-0.664,1.244-1.162,2.177-2.273,4.261c-3.259-7.79-6.184-14.783-9.11-21.776c0.381-0.301,0.762-0.602,1.144-0.903
			c6.239,4.539,12.479,9.077,19.265,14.012c-1.917,0.395-3.17,0.653-5.174,1.066c4.034,4.588,7.729,8.779,11.411,12.982
			c8.97,10.239,17.931,20.487,26.915,30.713c0.224,0.254,0.674,0.309,1.015,0.456c1.406,1.591,2.833,3.169,4.219,4.781
			c1.291,1.501,2.47,1.446,3.729-0.066c4.014-4.82,6.278-10.18,5.596-16.611c-0.607-5.719-2.95-10.548-6.932-14.635
			c-1.406-1.985-2.812-3.97-4.674-6.601c-0.898,2.239-1.428,3.56-1.958,4.881c-0.317,0.104-0.634,0.209-0.951,0.313
			c-2.925-7.014-5.85-14.028-8.775-21.043c0.338-0.267,0.677-0.535,1.015-0.802c5.933,3.888,12.331,7.105,17.12,12.648
			c0.247,1.68,0.057,3.596,0.819,4.995c2.389,4.39,5.771,8.33,7.614,12.909c3.971,9.87,2.119,19.102-5.099,27.001
			c-1.796,1.966-2.154,3.353-0.188,5.343c2.726,2.76,5.25,5.719,8.381,9.166c2.475-5.341,5.033-9.896,6.735-14.752
			c2.931-8.361,5.485-16.867,7.874-25.402c0.976-3.489,2.355-4.113,5.545-2.591c2.479,1.183,5.238,1.813,7.91,2.55
			c2.221,0.612,2.546,1.814,2.07,3.967c-3.832,17.337-7.681,34.673-11.256,52.063c-3.421,16.642-4.447,33.457-2.642,50.393
			c0.122,1.137,0.476,2.249,0.722,3.372c0.333-0.018,0.667-0.035,1-0.053c0.13-0.885,0.377-1.771,0.372-2.655
			c-0.029-4.673-0.047-9.348-0.206-14.017c-0.525-15.477,1.682-30.636,5.008-45.697c3.067-13.891,5.929-27.827,8.884-41.743
			c0.612-2.881,1.239-4.513,5.348-4.172c20.575,1.708,41.036,0.688,61.019-5.085c2.96-0.854,3.925,0.142,4.258,2.809
			c1.203,9.619,2.946,19.201,3.561,28.856c0.954,14.969,1.89,30.008,1.451,44.977c-0.413,14.059-2.626,28.063-4.025,42.093
			c-0.171,1.708-0.21,3.43-0.321,5.34c6.348,0.465,11.109-2.279,15.461-5.755c10.414-8.315,14.105-22.504,10.075-35.217
			c-3.264-10.299-6.229-20.746-8.415-31.315c-1.604-7.757,0.591-15.219,5.454-21.688c1.853-1.652,3.704-3.303,5.556-4.953
			c3.564-0.287,7.128-0.574,10.693-0.861c1.878,0.204,3.757,0.409,5.635,0.613c2.042,0.466,4.676,2.964,5.054-3.269
			c1.897,2.455,2.945,3.811,3.991,5.165C269.088,260.683,270.325,262.073,271.562,263.463z M163.35,264.897
			c-1.299,2.267-2.512,3.455-2.472,4.597c0.035,0.981,1.504,1.911,2.338,2.863c0.993-0.997,2.592-1.887,2.794-3.024
			C166.183,268.361,164.754,267.104,163.35,264.897z M167.193,245.426c-1.205,1.976-2.413,3.107-2.411,4.236
			c0.001,0.832,1.827,2.489,2.406,2.317c1.123-0.333,2.496-1.587,2.706-2.666C170.055,248.484,168.596,247.338,167.193,245.426z
			 M158.939,293.36c1.316-1.822,2.755-2.981,2.573-3.765c-0.253-1.09-1.598-2.344-2.715-2.649c-0.593-0.162-2.399,1.539-2.388,2.383
			C156.422,290.427,157.697,291.51,158.939,293.36z M144.667,289.47c-1.635-1.212-2.685-2.592-3.594-2.505
			c-1.009,0.098-1.889,1.534-2.825,2.388c0.954,0.949,1.785,2.398,2.904,2.672C141.896,292.208,143.051,290.71,144.667,289.47z
			 M149.195,253.22c1.262-1.631,2.652-2.641,2.619-3.604c-0.034-0.994-1.451-1.941-2.263-2.909
			c-0.996,0.982-2.427,1.821-2.817,3.003C146.514,250.378,148.008,251.611,149.195,253.22z M155.442,334.791
			c1.088-1.702,2.373-2.827,2.237-3.741c-0.146-0.978-1.631-1.755-2.532-2.62c-0.905,0.999-2.32,1.901-2.532,3.03
			C152.476,332.199,154.079,333.265,155.442,334.791z M140.94,331.268c-1.706-1.282-2.789-2.711-3.658-2.592
			c-1.035,0.144-1.885,1.617-2.814,2.514c0.931,0.891,1.772,2.324,2.823,2.501C138.142,333.833,139.246,332.462,140.94,331.268z
			 M137.47,306.247c-1.172,1.769-2.451,2.848-2.362,3.8c0.09,0.969,1.527,1.811,2.375,2.709c0.835-0.884,2.275-1.727,2.34-2.663
			C139.891,309.111,138.639,308.038,137.47,306.247z M149.175,269.331c-1.825-1.111-2.982-2.376-3.887-2.215
			c-0.972,0.173-1.706,1.684-2.544,2.611c0.867,0.74,1.762,2.102,2.593,2.063C146.388,271.742,147.385,270.554,149.175,269.331z
			 M159.048,310.03c-1.557-1.276-2.57-2.734-3.45-2.657c-0.923,0.081-1.716,1.635-2.566,2.544c0.896,0.781,1.71,2.011,2.717,2.198
			C156.506,312.255,157.513,311.059,159.048,310.03z"/>
		<path fill-rule="evenodd" clip-rule="evenodd" fill="#2A1F22" d="M129.582,164.897c2.335,7.58,7.45,12.957,13.756,17.403
			c1.755,1.238,2.997,1.633,4.685-0.545c1.714-2.21,4.167-2.726,7.388-2.005c9.836,2.201,19.792,1.927,29.539-0.785
			c2.568-0.715,4.152-0.222,5.974,1.583c3.596,3.561,3.923,3.276,8.148,0.165c9.814-7.226,13.155-17.74,15.212-28.981
			c0.168-0.921,0.419-1.828,1.198-2.631c5.508,19.581,2,37.56-10.826,54.016c1.337,0.106,1.652,0.231,1.785,0.126
			c1.989-1.571,4.62-3.085,6.367-0.962c1.282,1.558,0.86,4.546,1.102,6.907c0.045,0.438-0.263,1.018-0.584,1.371
			c-3.992,4.392-3.492,9.304-1.649,14.334c1.166,3.182-0.188,4.878-3.185,5.445c-8.647,1.635-17.263,3.666-25.991,4.59
			c-8.625,0.914-17.419,1.334-26.053,0.736c-8.081-0.562-16.118-2.446-24.041-4.314c-5.046-1.191-4.993-1.75-3.667-6.613
			c0.332-1.216,0.614-2.456,1.068-3.628c1.225-3.16,1.161-5.965-1.283-8.696c-1.11-1.24-1.901-3.104-2.059-4.76
			c-0.15-1.582,0.213-3.941,1.264-4.705c1.056-0.769,3.253-0.104,4.916,0.155c0.789,0.123,1.497,0.764,2.814,1.483
			c-0.286-1.332-0.225-2.27-0.651-2.852c-5.128-6.999-8.63-14.751-10.994-23.064c-0.192-0.674-0.817-1.226-1.243-1.832
			c0.11-1.461,0.393-2.935,0.307-4.388c-0.483-8.146-0.474-16.244,1.768-24.58C126.365,153.793,127.973,159.345,129.582,164.897z
			 M176.673,203.271c-1.714,2.336-3.702,3.975-3.412,4.896c0.466,1.48,2.438,2.488,3.773,3.695c0.897-1.405,2.253-2.728,2.52-4.243
			C179.718,206.693,178.207,205.472,176.673,203.271z M160.813,203.612c-1.474,2.216-3.271,3.784-2.995,4.777
			c0.387,1.396,2.313,2.365,3.582,3.517c0.907-1.321,2.412-2.591,2.529-3.979C164.02,206.86,162.366,205.645,160.813,203.612z"/>
		<path fill-rule="evenodd" clip-rule="evenodd" fill="#ED2F3D" d="M89.465,272.355c7.009-4.219,6.709-3.893,12.59,1.504
			c5.521,5.067,6.994,9.81,3.971,17.203c-5.125,12.536-6.945,25.922-6.242,39.544c0.213,4.125,0.457,8.249,0.685,12.368
			c-5.317-12.999-8.215-26.602-9.479-40.506C90.082,292.466,89.946,282.395,89.465,272.355z"/>
		<path fill-rule="evenodd" clip-rule="evenodd" fill="#ED2F3D" d="M97.74,227.51c3.982,4.087,6.325,8.916,6.932,14.635
			c0.683,6.431-1.582,11.792-5.596,16.611c-1.258,1.512-2.438,1.567-3.729,0.066c-1.386-1.612-2.813-3.189-4.219-4.781
			c1.293-5.599,2.529-11.211,3.893-16.792C95.822,233.977,96.827,230.754,97.74,227.51z"/>
		<polygon fill-rule="evenodd" clip-rule="evenodd" fill="#ED2F3D" points="87.399,272.526 87.339,272.39 87.448,272.489 		"/>
		<polygon fill-rule="evenodd" clip-rule="evenodd" fill="#ED2F3D" points="142.616,414.067 142.716,414.013 142.76,414.125 		"/>
		<path fill-rule="evenodd" clip-rule="evenodd" fill="#2A1F22" d="M160.151,166.095c0-7.9,0.066-15.801-0.021-23.701
			c-0.071-6.43-0.432-12.858-0.383-19.285c0.007-0.95,1.569-1.887,2.411-2.831c0.766,1.014,2.168,2.007,2.202,3.045
			c0.422,13.117,0.638,26.239,0.932,39.36c0.028,1.274,0.224,2.544,0.342,3.815c0.409-0.002,0.818-0.005,1.227-0.007
			c0.15-1.361,0.435-2.723,0.431-4.084c-0.033-12.752-0.159-25.505-0.119-38.257c0.004-1.275,0.625-3.36,1.471-3.668
			c2.555-0.93,3.467,0.565,3.453,3.174c-0.071,12.755-0.025,25.511,0.032,38.266c0.006,1.309,0.361,2.618,0.555,3.926
			c0.418-0.023,0.837-0.046,1.255-0.07c0.113-1.26,0.325-2.52,0.326-3.78c0.01-12.881-0.02-25.762-0.021-38.643
			c0-1.749-0.307-3.578,2.501-3.646c2.986-0.072,2.795,1.816,2.793,3.755c-0.012,12.628-0.04,25.257-0.012,37.885
			c0.003,1.636,0.298,3.27,0.458,4.905c0.44,0.006,0.881,0.013,1.321,0.019c0.136-1.478,0.387-2.955,0.392-4.433
			c0.035-12.755-0.022-25.511,0.102-38.265c0.012-1.247,0.766-3.223,1.674-3.575c2.112-0.819,3.624,0.146,3.521,2.802
			c-0.225,5.795-0.389,11.594-0.533,17.393c-0.277,11.099-0.586,22.197-0.728,33.297c-0.028,2.225-0.861,3.09-2.913,3.544
			c-8.336,1.846-16.674,1.996-25.11,0.697c-2.538-0.39-3.51-1.575-3.623-3.903c-0.123-2.516-0.302-5.03-0.399-7.546
			c-0.539-14.09-1.084-28.181-1.542-42.273c-0.037-1.137,0.207-2.71,0.951-3.357c1.639-1.43,3.668,0.009,3.776,2.65
			c0.301,7.309,0.511,14.621,0.773,21.931c0.216,6.047,0.428,12.094,0.711,18.138c0.046,0.992,0.45,1.967,0.689,2.95
			C159.413,166.247,159.782,166.171,160.151,166.095z"/>
		<path fill-rule="evenodd" clip-rule="evenodd" fill="#FEFEFE" d="M291.88,271.917c0.324,3.777,0.749,7.52,0.95,11.274
			c0.847,15.718,1.54,31.444,2.498,47.155c0.204,3.342,1.429,6.61,1.881,9.953c0.183,1.349-0.448,2.807-0.709,4.216
			c-1-0.704-2.617-1.223-2.896-2.145c-1.278-4.237-2.846-8.55-3.1-12.905c-0.883-15.123-1.26-30.274-1.842-45.414
			c-0.056-1.447-0.196-2.89-0.376-5.437c-8.832,10.023-17.269,10.781-26.134-0.383c-0.339,3.938-0.641,6.348-0.741,8.766
			c-0.595,14.253-1.021,28.514-1.791,42.756c-0.201,3.716-1.224,7.434-2.244,11.044c-0.602,2.127-2.25,3.326-4.226,2.346
			c1.636-23.979,3.254-47.691,4.872-71.402c0.417-0.151,0.834-0.301,1.251-0.452c1.162,1.167,2.271,2.394,3.495,3.49
			c2.728,2.443,5.142,5.771,8.354,7.026c6.295,2.458,11.915-0.367,15.667-6.458C287.902,273.54,288.675,271.002,291.88,271.917z"/>
		<path fill-rule="evenodd" clip-rule="evenodd" fill="#FEFEFE" d="M314.153,297.638c0,7.795-0.011,15.59,0.003,23.385
			c0.011,5.807,0.037,11.612,0.095,17.418c0.017,1.673-0.225,3.407-2.305,2.854c-0.929-0.248-2.08-1.998-2.078-3.063
			c0.032-14.767,0.198-29.533,0.487-44.296c0.03-1.555,1.047-3.091,1.606-4.635c1.367,0.977,3.317,1.652,4.002,2.98
			c3.386,6.579,6.584,13.267,9.556,20.043c2.021,4.61,3.461,9.472,5.385,14.128c0.486,1.182,1.824,2.011,2.771,3.002
			c0.349-0.215,0.698-0.43,1.048-0.646c0-3.976,0.048-7.952-0.012-11.927c-0.101-6.812-0.366-13.621-0.342-20.432
			c0.007-1.83,0.71-3.693,1.314-5.466c0.175-0.511,1.121-0.758,1.715-1.126c0.31,0.598,0.887,1.192,0.892,1.791
			c0.109,14.745,0.159,29.489,0.215,44.235c0.004,1.009,0.168,2.075-0.103,3.012c-0.251,0.869-0.897,2.158-1.525,2.255
			c-0.845,0.131-2.311-0.453-2.692-1.168c-3.445-6.439-7.064-12.824-9.934-19.523c-3.239-7.564-5.757-15.438-8.588-23.178
			C315.16,297.401,314.656,297.52,314.153,297.638z"/>
		<path fill-rule="evenodd" clip-rule="evenodd" fill="#FEFEFE" d="M242.478,257.645c-1.852,1.65-3.703,3.301-5.556,4.953
			c-0.212-1.379-0.618-2.762-0.604-4.14c0.278-26.356,0.665-52.711,0.854-79.068c0.024-3.476,1.033-5.014,4.53-4.313
			c3.986,0.799,8.525,0.744,11.816,2.73c7.459,4.503,6.325,14.459-1.689,17.987c-2.024,0.891-4.433,1.593-6.568,1.386
			c-3.58-0.346-3.938,1.281-3.887,4.152c0.284,15.635,0.425,31.273,0.66,46.91C242.081,251.378,242.325,254.511,242.478,257.645z
			 M253.027,186.328c-0.051-5.253-3.475-8.315-9.091-8.371c-2-0.02-2.725,0.726-2.683,2.64c0.085,3.907-0.035,7.825,0.21,11.72
			c0.053,0.851,1.184,2.211,1.981,2.342C248.817,195.54,253.079,191.725,253.027,186.328z"/>
		<path fill-rule="evenodd" clip-rule="evenodd" fill="#FEFEFE" d="M418.872,260.926c-0.557,0.436-1.458,1.673-2.563,1.894
			c-2.207,0.442-3.097-1.059-3.256-3.14c-0.529-6.919-1.104-13.835-1.664-20.752c-0.162-2.009-0.401-4.016-0.483-6.028
			c-0.071-1.795-0.275-3.191-2.629-3.276c-2.199-0.079-3.087,0.74-3.496,2.898c-1.709,9.033-3.488,18.056-5.52,27.019
			c-0.279,1.23-2.126,2.105-3.246,3.144c-0.528-0.761-1.688-1.819-1.491-2.239c6.085-12.958,5.862-27.261,8.829-40.873
			c0.887-4.065,1.771-8.133,2.821-12.156c0.374-1.432,1.073-2.855,1.942-4.051c0.499-0.686,1.759-1.38,2.453-1.201
			c0.664,0.17,1.364,1.417,1.491,2.272c0.792,5.363,1.466,10.743,2.106,16.126c1.516,12.729,2.991,25.461,4.482,38.192
			C418.693,259.13,418.728,259.508,418.872,260.926z M406.018,225.834c4.181,0.632,4.325,0.614,4.069-2.753
			c-0.239-3.155-0.804-6.286-1.226-9.427c-0.238-0.017-0.477-0.035-0.715-0.052C407.454,217.577,406.763,221.552,406.018,225.834z"
			/>
		<path fill-rule="evenodd" clip-rule="evenodd" fill="#FEFEFE" d="M354.436,201.846c0.437,1.228,1.121,2.425,1.273,3.688
			c2.087,17.285,4.102,34.577,6.13,51.869c0.073,0.626,0.33,1.368,0.097,1.866c-0.594,1.262-1.181,3.133-2.195,3.468
			c-2.281,0.751-3.03-1.19-3.217-3.083c-0.446-4.519-0.806-9.047-1.174-13.574c-0.316-3.896-0.409-7.822-0.964-11.683
			c-0.319-2.214-1.363-4.325-2.261-7.025c3.658-4-0.22-9.28,0.995-14.912c-3.998,4.725-4.847,12.085-2.763,14.859
			c-0.925,2.832-1.922,5.15-2.429,7.571c-1.476,7.039-2.648,14.142-4.176,21.168c-0.44,2.028-1.526,3.976-2.635,5.764
			c-0.355,0.573-1.729,0.516-2.637,0.747c-0.129-0.88-0.664-1.978-0.327-2.607c4.553-8.479,4.137-18.048,6.021-27.1
			c1.753-8.421,2.935-16.964,4.81-25.355c0.487-2.178,2.625-3.986,4.005-5.965C353.472,201.643,353.954,201.744,354.436,201.846z"/>
		<path fill-rule="evenodd" clip-rule="evenodd" fill="#FEFEFE" d="M311.665,234.324c0.381,7.266,1.842,14.189,5.597,20.581
			c1.751,2.981,4.273,4.229,7.396,4.321c3.339,0.098,5.607-1.796,7.166-4.715c0.717-1.343,0.699-4.292,3.2-3.009
			c2.326,1.194,1.616,3.604,0.553,5.652c-3.339,6.432-13.75,7.785-19.839,2.597c-6.317-5.384-8.409-12.816-9.313-20.51
			c-1.266-10.763,1.349-20.836,7.408-29.84c4.479-6.656,11.106-9.148,16.829-6.777c4.291,1.778,6.223,7.788,3.534,11.43
			c-0.558,0.756-1.817,0.993-2.753,1.469c-0.302-0.976-1.084-2.115-0.817-2.896c0.84-2.461,1.344-4.689-1.235-6.37
			c-2.758-1.797-5.406-1.037-7.673,0.85c-1.619,1.348-3.237,2.937-4.225,4.76C313.718,218.845,311.597,226.317,311.665,234.324z"/>
		<path fill-rule="evenodd" clip-rule="evenodd" fill="#FEFEFE" d="M272.652,237.899c0.384-12.69,2.738-21.976,8.952-29.946
			c4.539-5.821,11.015-7.687,16.314-4.969c4.084,2.093,5.525,7.933,2.681,11.328c-0.528,0.632-1.654,0.763-2.505,1.125
			c-0.319-0.835-1.126-1.877-0.874-2.471c1.238-2.921,1.413-5.607-1.797-7.098c-3.287-1.527-6.602-0.373-8.399,2.405
			c-2.697,4.168-5.269,8.632-6.756,13.33c-3.409,10.768-2.42,21.441,2.731,31.578c1.718,3.38,4.109,6.128,8.378,6.094
			c4.155-0.033,6.236-2.706,7.833-6.108c0.334-0.71,1.334-1.106,2.027-1.647c0.595,0.996,1.645,1.965,1.703,2.991
			c0.204,3.621-5.064,7.939-9.869,8.342c-7.023,0.589-13.406-3.185-16.249-10.528C274.71,246.868,273.538,241.046,272.652,237.899z"
			/>
		<path fill-rule="evenodd" clip-rule="evenodd" fill="#FEFEFE" d="M383.834,234.939c0,7.826,0.046,15.653-0.032,23.479
			c-0.02,1.881,1.146,4.593-2.654,4.488c-3.701-0.103-2.606-2.838-2.597-4.679c0.093-16.156,0.223-32.312,0.564-48.464
			c0.068-3.24-0.806-4.287-4.035-3.941c-2.997,0.321-6.071,0.313-9.072,0.033c-1.234-0.115-2.368-1.322-3.548-2.032
			c1.124-0.686,2.24-1.95,3.375-1.967c10.096-0.151,20.197-0.145,30.294,0.006c1.217,0.018,2.418,1.165,3.626,1.788
			c-1.251,0.756-2.451,2.034-3.765,2.164c-3.124,0.308-6.307,0.178-9.455,0.023c-2.53-0.125-3.268,0.946-3.239,3.361
			c0.103,8.58,0.04,17.162,0.04,25.742C383.502,234.939,383.668,234.939,383.834,234.939z"/>
		<path fill-rule="evenodd" clip-rule="evenodd" fill="#FEFEFE" d="M368.604,289.029c0,14.126,0.021,27.09-0.009,40.055
			c-0.016,7.43-5.015,12.36-12.375,12.302c-7.609-0.06-12.63-4.985-12.574-12.464c0.091-12.108,0.201-24.217,0.462-36.321
			c0.023-1.122,1.186-2.22,1.818-3.328c0.526,1.099,1.48,2.188,1.51,3.301c0.316,12.229,0.488,24.461,0.701,36.693
			c0.106,6.192,2.95,9.477,8.249,9.535c4.959,0.055,8.948-4.154,8.969-9.625c0.04-10.722-0.021-21.444,0.023-32.166
			c0.007-1.748,0.086-3.572,0.604-5.214C366.29,290.817,367.516,290.126,368.604,289.029z"/>
		<path fill-rule="evenodd" clip-rule="evenodd" fill="#2A1F22" d="M431.229,349.976c-3.12,1.992-177.679,2.184-181.018,0
			C310.321,349.976,370.432,349.976,431.229,349.976z"/>
		<path fill-rule="evenodd" clip-rule="evenodd" fill="#FEFEFE" d="M415.01,314.04c-3.357-1.118-4.975-0.564-5.502,3.008
			c-0.954,6.47-2.308,12.89-3.751,19.272c-0.479,2.117-0.955,4.875-4.404,4.438c1.249-5.183,2.653-10.182,3.634-15.264
			c1.813-9.395,3.322-18.847,5.087-28.25c0.39-2.074,1.136-4.136,2.077-6.024c0.389-0.781,1.722-1.092,2.626-1.616
			c0.44,0.802,1.17,1.568,1.278,2.413c1.419,11.12,2.759,22.25,4.099,33.379c0.481,4.002,1.08,8.003,1.257,12.021
			c0.054,1.209-1.134,2.474-1.753,3.712c-0.927-1.072-2.546-2.071-2.668-3.229C416.158,330.027,415.643,322.121,415.01,314.04z
			 M413.672,298.991c-0.251-0.035-0.502-0.07-0.753-0.104c-0.613,2.935-1.346,5.853-1.757,8.815
			c-0.103,0.73,0.836,1.607,1.297,2.416c0.655-0.698,1.875-1.401,1.869-2.095C414.305,305.01,413.924,302.001,413.672,298.991z"/>
		<path fill-rule="evenodd" clip-rule="evenodd" fill="#FEFEFE" d="M258.807,257.396c-1.878-0.204-3.757-0.409-5.635-0.613
			c0.25-16.891,0.583-33.781,0.682-50.672c0.019-3.238,0.861-4.646,4.25-4.405c3.264,0.231,6.563-0.042,9.827,0.187
			c0.979,0.069,1.893,1.075,2.837,1.651c-0.989,0.588-1.93,1.55-2.978,1.687c-2.109,0.274-4.284,0.215-6.418,0.08
			c-2.19-0.14-3.318,0.517-3.274,2.905c0.098,5.294,0.112,10.592,0.077,15.887c-0.019,2.761,1.752,2.446,3.605,2.442
			c1.914-0.003,4.506-1.456,5.152,1.673c0.063,0.302-3.128,1.842-4.794,1.815c-3.321-0.054-3.984,1.238-3.839,4.309
			C258.663,242.018,258.662,249.71,258.807,257.396z"/>
		<path fill-rule="evenodd" clip-rule="evenodd" fill="#FEFEFE" d="M390.593,316.57c0,6.934,0.043,13.869-0.041,20.803
			c-0.015,1.174-0.355,2.479-0.974,3.453c-0.296,0.467-1.999,0.696-2.345,0.338c-0.669-0.694-1.152-1.882-1.148-2.861
			c0.045-9.076,0.217-18.151,0.338-27.228c0.065-4.917-0.096-9.846,0.221-14.746c0.215-3.324-1.091-4.196-4.121-3.927
			c-2.504,0.223-5.052,0.231-7.553,0.02c-0.908-0.077-1.738-1.069-2.604-1.643c0.829-0.549,1.651-1.561,2.487-1.572
			c8.95-0.12,17.902-0.126,26.853-0.014c0.828,0.011,1.642,1.056,2.463,1.62c-0.876,0.567-1.72,1.553-2.632,1.621
			c-2.631,0.196-5.299,0.159-7.934-0.044c-2.612-0.201-3.553,0.678-3.487,3.387c0.166,6.927,0.055,13.86,0.055,20.792
			C390.312,316.569,390.452,316.57,390.593,316.57z"/>
		<path fill-rule="evenodd" clip-rule="evenodd" fill="#2A1F22" d="M276.29,387.998c-6.184,0.105-6.583-0.276-6.459-4.419
			c0.205-6.919,0.283-13.846,0.674-20.755c0.08-1.41,1.312-2.755,2.012-4.13c1.518,1.095,3.113,2.1,4.529,3.313
			c1.142,0.979,1.876,2.531,3.122,3.278c7.632,4.58,9.6,12.157,4.628,18.799C282.271,387.458,278.446,387.792,276.29,387.998z
			 M273.314,366.534c0,5.625-0.095,11.264,0.125,16.89c0.026,0.666,1.815,1.858,2.716,1.794c5.292-0.373,8.166-3.777,7.971-9.035
			C283.914,370.455,279.759,366.551,273.314,366.534z"/>
		<path fill-rule="evenodd" clip-rule="evenodd" fill="#2A1F22" d="M399.105,373.182c-1.111,3.505-1.935,6.768-3.187,9.858
			c-1.206,2.979-3.475,4.901-6.923,4.971c-3.645,0.072-6.133-2.199-7.449-4.989c-2.911-6.17-3.211-12.7-0.058-18.938
			c3.402-6.73,10.298-7.187,14.175-0.789C397.412,366.183,397.97,369.792,399.105,373.182z M395.805,373.034
			c-1.349-3.392-2.372-7.109-4.253-10.325c-1.497-2.562-4.268-2.402-5.805,0.162c-1.384,2.31-2.528,4.983-2.916,7.622
			c-0.699,4.77-0.477,9.632,2.904,13.563c2.4,2.792,5.063,2.719,6.672-0.486C393.932,380.534,394.558,377.046,395.805,373.034z"/>
		<path fill-rule="evenodd" clip-rule="evenodd" fill="#FEFEFE" d="M304.673,315.642c0,7.196,0.031,14.392-0.023,21.587
			c-0.013,1.611,0.692,4.094-2.16,3.697c-0.816-0.113-1.919-2.292-1.92-3.525c-0.016-14.77,0.108-29.54,0.352-44.308
			c0.021-1.257,1.155-2.495,1.772-3.741c0.572,1.314,1.61,2.619,1.64,3.946c0.159,7.445,0.077,14.896,0.077,22.344
			C304.498,315.642,304.585,315.642,304.673,315.642z"/>
		<path fill-rule="evenodd" clip-rule="evenodd" fill="#2A1F22" d="M369.62,387.823c-2.472-0.223-2.884-2.036-2.984-4.143
			c-0.199-4.141-0.209-8.307-0.72-12.409c-0.32-2.576-1.6-4.821-5.1-4.162c-1.478,6.882,1.025,14.146-1.249,20.849
			c-0.526-0.013-1.052-0.024-1.578-0.037c-0.155-1.015-0.44-2.028-0.445-3.044c-0.036-7.437-0.025-14.873-0.009-22.31
			c0.005-1.907-0.189-4.082,2.73-3.869c2.466,0.18,4.387,1.134,4.52,4.028c0.033,0.706-0.132,1.74,0.259,2.063
			c4.444,3.674,3.844,8.677,3.875,13.596C368.938,381.451,369.359,384.514,369.62,387.823z"/>
		<path fill-rule="evenodd" clip-rule="evenodd" fill="#2A1F22" d="M319.894,364.326c-0.735-1.149-1.471-2.3-2.291-3.581
			c-2.517,3.244-2.026,5.987,0.793,9.165c1.953,2.202,4.132,4.539,5.096,7.216c2.001,5.558-2.895,11.591-8.331,10.873
			c-3.666-0.484-4.916-2.785-3.49-5.076c1.722,0.867,4.149,2.792,4.842,2.296c1.563-1.12,2.799-3.327,3.204-5.291
			c0.713-3.462-1.067-6.203-3.632-8.604c-3.963-3.71-4.278-8.479-0.65-11.007c1.084-0.756,3.309-0.624,4.613-0.027
			c0.748,0.342,0.697,2.433,1.006,3.736C320.667,364.126,320.28,364.226,319.894,364.326z"/>
		<path fill-rule="evenodd" clip-rule="evenodd" fill="#2A1F22" d="M348.153,360.666c-1.092,0.239-2.224,0.795-3.268,0.662
			c-3.809-0.484-4.338,1.52-4.238,4.68c0.194,6.167,0.167,12.344,0.053,18.514c-0.021,1.121-0.893,2.227-1.372,3.34
			c-0.502-1.081-1.416-2.154-1.436-3.245c-0.121-6.421-0.173-12.852,0.047-19.268c0.1-2.913-0.69-4.153-3.749-4.025
			c-1.207,0.049-2.454-0.887-3.683-1.373c1.288-0.426,2.562-1.155,3.868-1.22c3.518-0.176,7.051-0.132,10.574-0.034
			c1.087,0.03,2.162,0.514,3.243,0.79C348.18,359.879,348.167,360.273,348.153,360.666z"/>
		<path fill-rule="evenodd" clip-rule="evenodd" fill="#2A1F22" d="M300.032,359.001c0.161,1.175,0.451,2.349,0.459,3.524
			c0.054,7.429,0.094,14.859-0.003,22.288c-0.014,1.03-0.805,2.051-1.235,3.076c-0.525-0.948-1.494-1.889-1.507-2.843
			c-0.103-7.679-0.059-15.362,0.035-23.043c0.012-1.061,0.537-2.115,0.825-3.173C299.082,358.888,299.558,358.945,300.032,359.001z"
			/>
		<path fill-rule="evenodd" clip-rule="evenodd" fill="#2A1F22" d="M306.114,283.079c-1.664,1.431-2.619,2.882-3.524,2.852
			c-0.863-0.03-2.163-1.52-2.339-2.529c-0.124-0.705,1.251-2.283,2.086-2.382C303.264,280.91,304.336,282.039,306.114,283.079z"/>
		<path fill-rule="evenodd" clip-rule="evenodd" fill="#FEFEFE" d="M271.562,263.463c-1.237-1.39-2.474-2.78-3.71-4.171
			c0.99,0.027,2.016-0.1,2.959,0.121c1.091,0.255,2.11,0.816,3.16,1.245C273.167,261.593,272.365,262.528,271.562,263.463z"/>
		<path fill-rule="evenodd" clip-rule="evenodd" fill="#ED2F3D" d="M163.35,264.897c1.404,2.206,2.833,3.463,2.66,4.437
			c-0.202,1.137-1.801,2.027-2.794,3.024c-0.834-0.953-2.303-1.882-2.338-2.863C160.837,268.352,162.051,267.165,163.35,264.897z"/>
		<path fill-rule="evenodd" clip-rule="evenodd" fill="#ED2F3D" d="M167.193,245.426c1.403,1.912,2.862,3.058,2.7,3.888
			c-0.21,1.079-1.583,2.333-2.706,2.666c-0.579,0.172-2.405-1.485-2.406-2.317C164.781,248.533,165.988,247.402,167.193,245.426z"/>
		<path fill-rule="evenodd" clip-rule="evenodd" fill="#ED2F3D" d="M158.939,293.36c-1.242-1.85-2.517-2.933-2.531-4.031
			c-0.011-0.844,1.795-2.545,2.388-2.383c1.118,0.306,2.462,1.56,2.715,2.649C161.694,290.378,160.255,291.538,158.939,293.36z"/>
		<path fill-rule="evenodd" clip-rule="evenodd" fill="#ED2F3D" d="M144.667,289.47c-1.616,1.24-2.771,2.737-3.515,2.555
			c-1.119-0.273-1.95-1.723-2.904-2.672c0.937-0.854,1.816-2.29,2.825-2.388C141.982,286.878,143.032,288.258,144.667,289.47z"/>
		<path fill-rule="evenodd" clip-rule="evenodd" fill="#ED2F3D" d="M149.195,253.22c-1.188-1.609-2.681-2.842-2.461-3.509
			c0.39-1.182,1.822-2.021,2.817-3.003c0.812,0.967,2.229,1.915,2.263,2.909C151.847,250.579,150.457,251.589,149.195,253.22z"/>
		<path fill-rule="evenodd" clip-rule="evenodd" fill="#ED2F3D" d="M155.442,334.791c-1.364-1.525-2.967-2.592-2.827-3.331
			c0.212-1.129,1.627-2.031,2.532-3.03c0.901,0.865,2.387,1.643,2.532,2.62C157.815,331.963,156.53,333.088,155.442,334.791z"/>
		<path fill-rule="evenodd" clip-rule="evenodd" fill="#ED2F3D" d="M140.94,331.268c-1.694,1.194-2.798,2.565-3.649,2.423
			c-1.051-0.177-1.892-1.61-2.823-2.501c0.93-0.896,1.78-2.37,2.814-2.514C138.151,328.557,139.234,329.986,140.94,331.268z"/>
		<path fill-rule="evenodd" clip-rule="evenodd" fill="#ED2F3D" d="M137.47,306.247c1.169,1.791,2.421,2.864,2.353,3.846
			c-0.065,0.937-1.504,1.779-2.34,2.663c-0.848-0.898-2.285-1.74-2.375-2.709C135.02,309.094,136.298,308.015,137.47,306.247z"/>
		<path fill-rule="evenodd" clip-rule="evenodd" fill="#ED2F3D" d="M149.175,269.331c-1.79,1.223-2.788,2.411-3.838,2.459
			c-0.831,0.039-1.726-1.323-2.593-2.063c0.838-0.927,1.572-2.438,2.544-2.611C146.193,266.955,147.351,268.22,149.175,269.331z"/>
		<path fill-rule="evenodd" clip-rule="evenodd" fill="#ED2F3D" d="M159.048,310.03c-1.535,1.029-2.542,2.226-3.299,2.085
			c-1.007-0.188-1.821-1.417-2.717-2.198c0.85-0.909,1.644-2.463,2.566-2.544C156.478,307.295,157.491,308.753,159.048,310.03z"/>
		<path fill-rule="evenodd" clip-rule="evenodd" fill="#FEFEFE" d="M176.673,203.271c1.534,2.201,3.045,3.422,2.881,4.348
			c-0.267,1.515-1.623,2.838-2.52,4.243c-1.335-1.207-3.308-2.214-3.773-3.695C172.971,207.246,174.959,205.607,176.673,203.271z"/>
		<path fill-rule="evenodd" clip-rule="evenodd" fill="#FEFEFE" d="M160.813,203.612c1.552,2.032,3.206,3.248,3.116,4.315
			c-0.118,1.388-1.622,2.658-2.529,3.979c-1.268-1.151-3.194-2.121-3.582-3.517C157.543,207.396,159.34,205.828,160.813,203.612z
			 M164.19,208.302c-1.111-0.449-1.719-0.894-2.286-0.848c-0.333,0.027-0.875,0.869-0.823,1.284
			c0.049,0.397,0.802,1.053,1.136,0.993C162.766,209.631,163.225,209.043,164.19,208.302z"/>
		<path fill-rule="evenodd" clip-rule="evenodd" fill="#ED2F3D" d="M253.027,186.328c0.052,5.397-4.209,9.212-9.582,8.331
			c-0.798-0.131-1.928-1.491-1.981-2.342c-0.245-3.896-0.125-7.813-0.21-11.72c-0.042-1.914,0.683-2.66,2.683-2.64
			C249.552,178.013,252.976,181.075,253.027,186.328z"/>
		<path fill-rule="evenodd" clip-rule="evenodd" fill="#ED2F3D" d="M406.018,225.834c0.745-4.282,1.437-8.257,2.129-12.232
			c0.238,0.017,0.477,0.035,0.715,0.052c0.422,3.141,0.986,6.272,1.226,9.427C410.343,226.448,410.198,226.466,406.018,225.834z"/>
		<path fill-rule="evenodd" clip-rule="evenodd" fill="#ED2F3D" d="M413.672,298.991c0.252,3.011,0.633,6.02,0.656,9.032
			c0.006,0.693-1.214,1.396-1.869,2.095c-0.461-0.809-1.399-1.686-1.297-2.416c0.411-2.963,1.144-5.881,1.757-8.815
			C413.17,298.92,413.421,298.956,413.672,298.991z"/>
		<path fill-rule="evenodd" clip-rule="evenodd" fill="#ED2F3D" d="M273.314,366.534c6.445,0.018,10.6,3.921,10.812,9.648
			c0.194,5.258-2.68,8.662-7.971,9.035c-0.901,0.064-2.69-1.128-2.716-1.794C273.219,377.797,273.314,372.159,273.314,366.534z"/>
		<path fill-rule="evenodd" clip-rule="evenodd" fill="#ED2F3D" d="M395.805,373.034c-1.247,4.013-1.873,7.5-3.397,10.536
			c-1.609,3.205-4.271,3.278-6.672,0.486c-3.381-3.932-3.604-8.794-2.904-13.563c0.388-2.639,1.532-5.313,2.916-7.622
			c1.537-2.564,4.308-2.724,5.805-0.162C393.433,365.924,394.456,369.642,395.805,373.034z"/>
		<path fill-rule="evenodd" clip-rule="evenodd" fill="#2A1F22" d="M164.19,208.302c-0.965,0.742-1.425,1.33-1.973,1.429
			c-0.334,0.061-1.087-0.595-1.136-0.993c-0.051-0.415,0.49-1.256,0.823-1.284C162.471,207.408,163.079,207.853,164.19,208.302z"/>
	</g>
</g>
</svg>
